<svg width="75" height="36" viewBox="0 0 75 36" fill="none" xmlns="http://www.w3.org/2000/svg">
<path d="M30.3898 5.42676C25.1485 5.42676 20.8849 9.69037 20.8849 14.9317C20.8849 20.173 25.1485 24.4367 30.3898 24.4367C35.6312 24.4367 39.8948 20.173 39.8948 14.9317C39.8948 9.69037 35.6312 5.42676 30.3898 5.42676ZM30.3898 19.7584C27.7289 19.7584 25.5569 17.5926 25.5569 14.9255C25.5569 12.2584 27.7228 10.0926 30.3898 10.0926C33.0569 10.0926 35.2228 12.2584 35.2228 14.9255C35.2228 17.5926 33.0569 19.7584 30.3898 19.7584Z" fill="#6666FF"/>
<path d="M46.1015 0H41.7822C41.6832 0 41.6089 0.080441 41.6089 0.173263V23.8923C41.6089 23.9913 41.6894 24.0718 41.7884 24.0718H46.1077C46.2067 24.0718 46.2871 23.9913 46.2871 23.8923V0.173263C46.2871 0.0742529 46.2067 0 46.1139 0H46.1015Z" fill="#6666FF"/>
<path d="M53.2736 0H48.9543C48.8553 0 48.781 0.080441 48.781 0.173263V23.8923C48.781 23.9913 48.8615 24.0718 48.9605 24.0718H53.2798C53.3788 24.0718 53.453 23.9913 53.453 23.8985V0.179457C53.453 0.0804471 53.3726 0.00618661 53.2798 0.00618661L53.2736 0Z" fill="#6666FF"/>
<path d="M4.27599 0C4.15223 0 4.06559 0.129952 4.1151 0.241338L5.8849 4.56064C5.90965 4.62871 5.97772 4.67203 6.04579 4.67203H14.3317V14.9257C14.3317 17.5866 12.1658 19.7587 9.49876 19.7587C6.83168 19.7587 4.75866 17.6795 4.67203 15.0928C4.67203 15 4.59158 14.9257 4.49876 14.9257H0.179455C0.0804452 14.9257 0 15.0062 0 15.1052C0.0990099 20.2661 4.31931 24.4307 9.50495 24.4307C14.6906 24.4307 19.0099 20.1671 19.0099 14.9257V0.173263C19.0099 0.0742529 18.9295 0 18.8304 0H4.28218H4.27599Z" fill="#6666FF"/>
<path d="M70.3094 5.9651V16.4601C70.3094 16.4601 68.5334 19.7584 64.9938 19.7584C61.4542 19.7584 60.6807 18.2547 60.6807 15.1545V5.95891C60.6807 5.8599 60.6002 5.78564 60.5074 5.78564H56.1881C56.0891 5.78564 56.0086 5.86609 56.0086 5.9651V15.699C56.0086 21.2931 59.474 24.4366 64.2017 24.4366C68.0507 24.4366 70.3156 22.0666 70.3156 22.0666V25.4886C70.3156 28.2547 68.0074 30.5134 65.2908 30.5134C62.5742 30.5134 60.3651 28.3537 60.2722 25.6619C60.2722 25.5691 60.1918 25.4886 60.099 25.4886H55.7673C55.6683 25.4886 55.5878 25.5691 55.5878 25.6681C55.6807 30.9342 60 35.1916 65.2908 35.1916C70.6435 35.1916 74.9876 30.8413 74.9876 25.4886V5.9651C74.9876 5.86609 74.9071 5.79183 74.8143 5.79183H70.495C70.396 5.79183 70.3217 5.87228 70.3217 5.9651H70.3094Z" fill="#6666FF"/>
</svg>
