<?xml version="1.0" encoding="utf-8"?>
<!-- Generator: Adobe Illustrator 29.0.1, SVG Export Plug-In . SVG Version: 9.03 Build 54978)  -->
<svg version="1.1" id="Layer_1" xmlns="http://www.w3.org/2000/svg" xmlns:xlink="http://www.w3.org/1999/xlink" x="0px" y="0px"
	 viewBox="0 0 28 28" enable-background="new 0 0 28 28" xml:space="preserve">
<path fill="#ABABAB" d="M27.78,0.22L27.78,0.22c-0.29-0.29-0.76-0.29-1.04,0L14,12.96L1.26,0.22c-0.29-0.29-0.76-0.29-1.04,0l0,0
	c-0.29,0.29-0.29,0.76,0,1.04L12.96,14L0.22,26.74c-0.29,0.29-0.29,0.76,0,1.04l0,0c0.29,0.29,0.76,0.29,1.04,0L14,15.04
	l12.74,12.74c0.29,0.29,0.76,0.29,1.04,0l0,0c0.29-0.29,0.29-0.76,0-1.04L15.04,14L27.78,1.26C28.07,0.97,28.07,0.5,27.78,0.22z"/>
<g>
</g>
<g>
</g>
<g>
</g>
<g>
</g>
<g>
</g>
<g>
</g>
</svg>
