<?xml version="1.0" encoding="UTF-8"?>
<svg id="Layer_1" xmlns="http://www.w3.org/2000/svg" version="1.1" viewBox="0 0 18 18">
  <!-- Generator: Adobe Illustrator 29.0.1, SVG Export Plug-In . SVG Version: 2.1.0 Build 192)  -->
  <defs>
    <style>
      .st0 {
        fill: #fff;
      }
    </style>
  </defs>
  <path class="st0" d="M16.3,12.1v-5.7c0-2.5-1.4-4.1-3.8-4.3v-.6c0-.3-.3-.6-.6-.6s-.6.3-.6.6v.6h-4.9v-.6c0-.3-.3-.6-.6-.6s-.6.3-.6.6v.6c-2.4.2-3.8,1.7-3.8,4.3v6.4c0,2.7,1.6,4.3,4.3,4.3h5.3c.6.5,1.4.8,2.2.8,1.2,0,2.4-.7,3-1.7.3-.5.5-1.2.5-1.8s-.3-1.5-.8-2.2ZM5.4,3.2v.5c0,.3.3.6.6.6s.6-.3.6-.6v-.6h4.9v.6c0,.3.3.6.6.6s.6-.3.6-.6v-.5c1.7.2,2.6,1.2,2.6,3H2.8c0-1.9.9-2.9,2.6-3ZM6,15.9c-2.1,0-3.2-1-3.2-3.2v-5.4h12.4v3.7s0,0-.1,0c-.2,0-.3-.1-.5-.2,0,0-.2,0-.3,0-.3,0-.5-.1-.8-.1-2,0-3.6,1.6-3.6,3.6s0,.6.1.8c0,0,0,0,0,0,0,.3.2.5.3.7,0,0,0,0,0,0h-4.4ZM15.6,15.5c-.4.7-1.2,1.2-2.1,1.2s-1.2-.2-1.6-.6c-.2-.2-.3-.3-.5-.6-.2-.4-.4-.8-.4-1.2,0-1.3,1.1-2.4,2.4-2.4s.4,0,.6,0c.5.1.9.4,1.3.8.4.5.6,1,.6,1.6s-.1.9-.4,1.3Z"/>
  <path class="st0" d="M14.3,13.1l-1.2,1.1-.4-.4c-.2-.2-.6-.2-.8,0-.2.2-.2.6,0,.8l.7.7c.1.1.3.2.4.2s.3,0,.4-.1l1.6-1.5c.2-.2.2-.6,0-.8-.2-.2-.6-.2-.8,0Z"/>
  <path class="st0" d="M9,9.7h0c-.3,0-.6.3-.6.6s.3.6.6.6.6-.3.6-.6-.3-.6-.6-.6Z"/>
  <path class="st0" d="M6.2,9.7h0c-.3,0-.6.3-.6.6s.3.6.6.6.6-.3.6-.6-.3-.6-.6-.6Z"/>
  <path class="st0" d="M6.2,12h0c-.3,0-.6.3-.6.6s.3.6.6.6.6-.3.6-.6-.3-.6-.6-.6Z"/>
</svg>