<?xml version="1.0" encoding="utf-8"?>
<!-- Generator: Adobe Illustrator 29.0.1, SVG Export Plug-In . SVG Version: 9.03 Build 54978)  -->
<svg version="1.1" id="Layer_1" xmlns="http://www.w3.org/2000/svg" xmlns:xlink="http://www.w3.org/1999/xlink" x="0px" y="0px"
	 viewBox="0 0 28 28" enable-background="new 0 0 28 28" xml:space="preserve">
<path fill="#ABABAB" d="M15.41,14L27.46,1.95c0.39-0.39,0.39-1.02,0-1.41s-1.02-0.39-1.41,0L14,12.59L1.95,0.54
	c-0.39-0.39-1.02-0.39-1.41,0s-0.39,1.02,0,1.41L12.59,14L0.54,26.05c-0.39,0.39-0.39,1.02,0,1.41c0.2,0.2,0.45,0.29,0.71,0.29
	s0.51-0.1,0.71-0.29L14,15.41l12.05,12.05c0.2,0.2,0.45,0.29,0.71,0.29s0.51-0.1,0.71-0.29c0.39-0.39,0.39-1.02,0-1.41L15.41,14z"/>
<g>
</g>
<g>
</g>
<g>
</g>
<g>
</g>
<g>
</g>
<g>
</g>
</svg>
