<?xml version="1.0" encoding="utf-8"?>
<!-- Generator: Adobe Illustrator 29.0.1, SVG Export Plug-In . SVG Version: 9.03 Build 54978)  -->
<svg version="1.1" id="Layer_1" xmlns="http://www.w3.org/2000/svg" xmlns:xlink="http://www.w3.org/1999/xlink" x="0px" y="0px"
	 viewBox="0 0 28 28" enable-background="new 0 0 28 28" xml:space="preserve">
<path fill="#ABABAB" d="M28,0L28,0c-0.34-0.34-0.9-0.34-1.24,0L14,12.76L1.24,0C0.9-0.34,0.34-0.34,0,0l0,0
	c-0.34,0.34-0.34,0.9,0,1.24L12.76,14L0,26.76c-0.34,0.34-0.34,0.9,0,1.24l0,0c0.34,0.34,0.9,0.34,1.24,0L14,15.24L26.76,28
	c0.34,0.34,0.9,0.34,1.24,0l0,0c0.34-0.34,0.34-0.9,0-1.24L15.24,14L28,1.24C28.34,0.9,28.34,0.34,28,0z"/>
<g>
</g>
<g>
</g>
<g>
</g>
<g>
</g>
<g>
</g>
<g>
</g>
</svg>
