<?xml version="1.0" encoding="UTF-8"?>
<svg id="Layer_1" data-name="Layer 1" xmlns="http://www.w3.org/2000/svg" viewBox="0 0 30.97 23.94">
  <path d="M22.75,23.94h-14.5C3.03,23.94.03,21.23.03,16.5V7.44C.03,2.71,3.03,0,8.25,0h14.5c5.22,0,8.22,2.71,8.22,7.44v9.06c0,4.73-3,7.44-8.22,7.44ZM8.25,1.94C4.08,1.94,1.97,3.79,1.97,7.44v9.06c0,3.65,2.11,5.5,6.28,5.5h14.5c4.17,0,6.28-1.85,6.28-5.5V7.44c0-3.65-2.11-5.5-6.28-5.5h-14.5Z" fill="#f5f5f5"/>
  <path d="M15.49,13.94c-1.21,0-2.42-.32-3.36-.96l-4.68-3.21c-.44-.3-.55-.91-.25-1.35.3-.44.9-.55,1.35-.25l4.68,3.21c1.21.82,3.32.82,4.53,0l4.69-3.21c.44-.3,1.04-.19,1.35.25.3.44.19,1.04-.25,1.35l-4.7,3.21c-.94.64-2.15.96-3.36.96Z" fill="#f5f5f5"/>
</svg>