<?xml version="1.0" encoding="UTF-8"?>
<svg id="Layer_1" xmlns="http://www.w3.org/2000/svg" version="1.1" viewBox="0 0 282 280">
  <!-- Generator: Adobe Illustrator 29.0.1, SVG Export Plug-In . SVG Version: 2.1.0 Build 192)  -->
  <defs>
    <style>
      .st0 {
        fill: #fff;
      }
    </style>
  </defs>
  <path d="M278,131.3h0c-.2-.9-.3-1.8-.3-2.6,0-5.3-.1-10.6-1-15.8-.9-5.4-2.5-10.6-5.3-15.3-1.8-3-3.9-5.7-6.9-7.6-.6-.4-.8-.9-.7-1.6.2-1.6.3-3.2.4-4.8.6-6.2,1.2-12.4,1.8-18.6.4-4.6.9-9.2,1.4-13.7.6-5.6,1.2-11.1,1.7-16.7.6-5.4,1.1-10.7,1.7-16.1.6-5.7,1.2-11.4,1.8-17.1,0-.3,0-.7,0-1.1-31.2,8.9-62.2,17.7-93.5,26.6v-1.9c0-5.1,0-10.1,0-15.2,0-1.4-.5-2.4-1.7-3.1-.5-.3-1.1-.7-1.7-.9-2.8-.9-5.7-2-8.6-2.5-11-2-22.2-2.9-33.4-3.1-12.6-.3-25.1.2-37.6,1.8-5.2.7-10.4,1.6-15.5,3.2-1.2.4-2.3.9-3.5,1.4-1.6.6-2.2,1.7-2.1,3.4,0,5.3,0,10.6,0,15.8v2C53.1,18.2,31.1,9.1,8.9,0c3,29.3,6,58.4,9,87.5-1.4.9-2.7,1.6-3.8,2.5-1.2.9-2.3,2-3.3,3.1-3.6,4.2-5.7,9.1-7.1,14.3-2,7.5-2.4,15.2-1.8,22.9.2,2.1.4,4.2,1,6.3.3,1,.2,2.2,0,3.3-.6,4.6-1.5,9.2-1.9,13.8-.6,5.7-.7,11.5,0,17.2.7,7.5,2.4,14.8,4.6,22,3,9.6,7.8,18.2,14.9,25.5,9.1,9.2,20.2,13.7,33,14,3.9.1,7.8-.4,11.7-1.1,1.5-.3,3.1-1,4.6-.8,1.5.2,2.9,1.4,4.3,2.1,4.8,2.6,9.7,5.2,14.5,7.7.7.4,1.2.9,1.4,1.7,2.7,9.1,4.9,18.3,5.4,27.8.2,2.7.2,5.5,0,8h102.2c5.7-15.3,9.9-31.3,12.8-47.6.3-1.5.6-2.9.8-4.5.5,0,.8,0,1.1.2,4.2,1.1,8.4,1.6,12.7,1.9,8.3.5,16.2-1.2,23.7-4.8,8.7-4.2,15.3-10.7,20.3-18.8,7.9-12.6,11.4-26.6,12.2-41.3.5-10.7-.8-21.3-3.4-31.7Z"/>
  <path class="st0" d="M116.6,246.2c-2.2-1.1-4-2-5.9-3-23.7-12.5-47.4-25.1-71.1-37.6-.8-.4-1.2-1-1.3-1.9-.5-4.7-1.2-9.4-1.7-14.2-.7-6-1.2-12.1-1.8-18.1,0-.2,0-.3,0-.6.3,0,.7-.2,1-.2,6-.5,12.1-1,18.1-1.5,2.8-.2,5.5-.3,8.3-.6,7.3-.9,13.6-8.2,11.2-16.6-.4-1.4-1-2.7-1.6-4.2,3.1-2.2,5.5-5,6.3-8.9.8-3.8,0-7.5-2.1-10.7,9.2-6.6,7.4-21.6-4.1-24.8.1-1.8.5-3.6.4-5.4-.3-7-6.2-12.7-13.2-12.7-3,0-6,.5-9.1.7-4.7.4-9.4.8-14.1,1.1-3.1.3-6.1.5-9.2.8-.3,0-.6,0-1,0-2.5-24.5-5-49-7.5-73.7.6.2,1,.3,1.5.5,13.8,5.7,27.7,11.3,41.5,17,17,6.9,34.1,13.9,51.1,20.8,1.8.8,1.6.5,1.6,2.3.2,17.6.3,35.1.5,52.7.3,22.3.6,44.6.9,67,.3,19.4.6,38.9.9,58.3,0,3.9.1,7.7.2,11.6,0,.5,0,1,0,1.9Z"/>
  <path class="st0" d="M243.9,205.6c-41.1,13.3-82.2,26.7-123.4,40.1-.9-63.9-1.8-127.6-2.7-191.5,49.2-14,98.2-28,147.7-41.7-2.7,25.4-5.3,50.6-8,75.8-1,0-1.8,0-2.6,0-10-.9-20-1.9-30-2.8-1.7-.2-3.5-.4-5.1-.1-7.9,1.2-11.5,8.1-11.2,14.1,0,1.2.3,2.5.5,3.9-5.3,1.6-9.1,5-10.2,10.7-1.1,5.7,1,10.2,5.5,14-2.3,3.2-3.2,6.8-2.5,10.6.7,3.9,2.9,6.9,6.3,9.1-.3.6-.5,1.1-.8,1.6-1.3,2.9-2,5.9-1.3,9.2,1.3,5.9,6.8,10.3,12.8,10.7,5.8.4,11.6.9,17.3,1.4,3.4.3,6.8.7,10.1,1,.4,0,.8.1,1.2.2-1.2,11.2-2.5,22.4-3.7,33.7Z"/>
  <path class="st0" d="M22.8,162.2c-2.2-1.6-4.1-3.5-5.6-5.7-3-4.4-4.8-9.3-6-14.4-1.3-5.3-1.8-10.7-1.8-16.2,0-5.7.5-11.3,2.1-16.7,1.3-4.4,3.9-8.1,6.9-11.4.8-.9,1.8-1.3,3-1.4,5.1-.4,10.2-.8,15.3-1.3,5.8-.5,11.6-1,17.3-1.5,1.4-.1,2.7-.2,4.1-.2,1.2,0,2.1.4,2.8,1.5.2.4.6.7.9,1.1,1.2,1.6,1.5,3.4.7,5.3-.8,1.9-2.3,2.9-4.4,3-6.3.4-12.5.8-18.8,1.2-3.3.2-6.7.6-10,.9-2.3.2-3.9,2-4.2,4.2-.2,2.4,1.9,4.6,4.4,4.4,5.9-.5,11.9-1,17.8-1.5,5.5-.5,10.9-1,16.4-1.4,1,0,2-.2,3-.3,2.8-.2,5,1.5,5.5,4.2.4,2.6-1.3,5.2-3.9,5.8-1.8.4-3.6.4-5.5.6-8.3.7-16.7,1.4-25,2.2-2.7.2-5.3.4-8,.7-1.9.2-3.3,1.7-3.6,3.4-.3,1.8.7,3.5,2.4,4.2.7.3,1.4.4,2.1.3,4.6-.3,9.2-.8,13.8-1.1,4.7-.4,9.5-.8,14.2-1.2,1.5-.1,2.9-.3,4.4-.3,3.7,0,6.4,3.7,5.2,7.2-.7,2.1-2.2,3.3-4.4,3.5-5.1.5-10.2.9-15.3,1.3-5.6.5-11.1,1-16.7,1.4-3.2.2-4.2,3.1-3.6,5.4.3,1.1.9,1.9,2,2.2,1,.2,2.1.4,3.1.3,8.2-1,16.4-1.5,24.7-2.1,2.4-.2,4.1.6,5.2,2.7,1.2,2.2,1.1,4.3-.2,6.4-.7,1.2-1.9,1.7-3.3,1.9-3,.2-6,.5-9.1.7-8.1.6-16.3,1.2-24.4,1.9-1.3.1-2.5-.2-3.5-1Z"/>
  <path class="st0" d="M265.1,150.8h0c-1.2,2.6-2.7,4.9-4.6,7.1-1.3,1.5-2.9,2.8-4.5,3.8-1.1.7-2.4,1-3.7.9-9.6-1-19.2-1.9-28.9-2.8-1.3-.1-2.6-.2-3.9-.3-3.7-.4-5.7-3-5-6.5.2-1,.6-1.7,1.5-2.3,1.5-1,3.1-1.5,5-1.3,5.8.6,11.5,1.1,17.3,1.7,2.3.2,4.7.5,7,.8,1.3.2,2.5,0,3.6-.7,1.7-1,2.3-2.3,2-4.2-.2-1.6-1.5-3-3.1-3.3-1.5-.3-3-.4-4.5-.5-7.9-.8-15.7-1.5-23.6-2.3-1.7-.2-3.3-.3-5-.5-2.7-.3-4.6-2.6-4.5-5.2,0-2.5,2.3-4.7,4.8-4.9.6,0,1.3,0,1.9,0,7,.7,14,1.4,21.1,2.2,3.3.3,6.7.7,10,1,2.9.2,5-2,4.6-4.9-.2-1.9-1.5-3.3-3.5-3.5-4.7-.6-9.4-1.2-14.2-1.6-7.8-.8-15.6-1.5-23.4-2.2-2.5-.2-4.6-2.5-4.5-4.8,0-2.8,2.2-5.3,5-5.3,1.8,0,3.5.3,5.3.5,5.5.6,10.9,1.2,16.4,1.7,5.4.5,10.7.9,16.1,1.5,2,.2,4.4-1.5,4.6-3.3.2-2.3-1.6-4.5-3.9-4.7-3-.2-6.1-.4-9.1-.6-6-.6-12.1-1.2-18.1-1.8-.8,0-1.7-.1-2.5-.2-2.5-.3-4-1.7-4.5-3.9-.5-2.3.5-4.6,2.5-5.8.5-.3,1.1-.6,1.7-.8,2-.5,4.1-.9,6.2-.7,8.4.8,16.9,1.6,25.3,2.4,2.4.2,4.8.4,7.2.7.7,0,1.3.3,1.9.6,1.6.9,2.9,2.2,4,3.7,2.7,4,4.3,8.4,5.1,13.1.5,3.3.7,6.7,1.1,10.1-.3,9.6-1.9,18.8-6.1,27.5Z"/>
  <path d="M167.1,72c-.8-.5-1.6-.7-2.6-.5-6.1,1.3-12.3,2.4-18.5,3.6-4.4.9-8.8,1.7-13.3,2.6h0c-.1.4-.2.7-.3,1-1.2,5.1-2.4,10.2-3.6,15.2-.2.9-.2,1.7.4,2.5,2.7,3.6,5.3,7.3,7.9,10.9.7.9,1.5,1.5,2.6,1.9,5.9,2.1,11.7,4.2,17.5,6.4,1,.4,1.6.3,2.5-.2,5.5-3.4,11.1-6.7,16.6-10,.5-.3.9-.8,1.1-1.2,2.4-6.8,4.7-13.5,7-20.3,0-.3,0-.6,0-.9-1.8-1.1-3.6-2.2-5.4-3.4-4-2.5-7.9-5.1-11.9-7.6Z"/>
  <path class="st0" d="M167.4,101.2c-3.9,6.3-14.9,10.5-22.6,2.6-4.3-4.4-5.1-11.5-1.8-16.8,2.4-3.9,5.6-6.4,10.2-7,2.8-.4,5.4.2,7.9,1.4,2.2,1.1,4.1,2.6,5.8,4.7h0c-5.4,1.7-7.7,4.1-7.4,7.6.2,2.1,1.1,3.8,2.7,5.1,1.3,1,1.9,1.2,5.7,1.7-.1.3-.2.6-.4.8Z"/>
</svg>