<?xml version="1.0" encoding="UTF-8"?>
<svg id="Layer_1" xmlns="http://www.w3.org/2000/svg" version="1.1" viewBox="0 0 280 564.9">
  <!-- Generator: Adobe Illustrator 29.0.1, SVG Export Plug-In . SVG Version: 2.1.0 Build 192)  -->
  <defs>
    <style>
      .st0 {
        fill: #fff;
      }
    </style>
  </defs>
  <path d="M140,301.4c57.3,0,104.5-8,110.4-22.5.4,1,.6,2,.6,3.1,0,16-49.7,28.9-111,28.9s-111-12.9-111-28.9.2-2.1.6-3.1c5.9,14.5,53.1,22.5,110.4,22.5Z"/>
  <path class="st0" d="M250,278.2c.6,1.3,1,2.5,1,3.8,0,16-49.7,28.9-111,28.9s-111-12.9-111-28.9.3-2.6,1-3.8H0v286.7h280v-286.7h-30Z"/>
</svg>