<svg width="282" height="306" viewBox="0 0 282 306" fill="none" xmlns="http://www.w3.org/2000/svg">
<g filter="url(#filter0_i_161_937)">
<ellipse cx="146" cy="278" rx="111" ry="28" fill="#1A1A1A"/>
</g>
<g clip-path="url(#clip0_161_937)">
<path d="M117.908 54.08C167.059 40.0423 216.132 26.0377 265.566 12.3735C262.882 37.7982 260.226 62.9733 257.566 88.1846C256.608 88.1846 255.783 88.2505 254.968 88.1752C244.973 87.2508 234.981 86.2904 224.985 85.3833C223.276 85.228 221.509 85.0208 219.836 85.2797C211.983 86.4975 208.366 93.412 208.632 99.3755C208.687 100.618 208.967 101.852 209.174 103.302C203.852 104.881 200.103 108.272 198.99 114.019C197.89 119.704 199.968 124.262 204.478 127.978C202.22 131.184 201.25 134.734 201.989 138.621C202.73 142.516 204.896 145.501 208.257 147.745C207.98 148.332 207.724 148.836 207.501 149.354C206.236 152.285 205.483 155.291 206.209 158.505C207.546 164.419 212.959 168.832 219.015 169.206C224.806 169.564 230.584 170.122 236.364 170.634C239.749 170.934 243.126 171.315 246.505 171.666C246.908 171.709 247.309 171.789 247.726 171.855C246.494 183.094 245.273 194.246 244.035 205.551C202.969 218.881 161.841 232.232 120.647 245.602C119.733 181.674 118.821 117.966 117.908 54.08ZM132.82 77.6701C132.693 78.1032 132.591 78.3983 132.519 78.7011C131.316 83.781 130.15 88.8704 128.892 93.9362C128.656 94.884 128.682 95.6075 129.265 96.4063C131.921 100.033 134.555 103.674 137.148 107.346C137.815 108.291 138.633 108.865 139.715 109.251C145.569 111.342 151.416 113.454 157.232 115.648C158.188 116.009 158.86 115.919 159.682 115.42C165.222 112.057 170.79 108.741 176.328 105.375C176.778 105.1 177.24 104.625 177.409 104.141C179.774 97.3903 182.092 90.6233 184.408 83.8548C184.504 83.577 184.473 83.2569 184.499 82.9666C182.666 81.821 180.887 80.7256 179.124 79.6051C175.156 77.08 171.19 74.5503 167.235 72.0048C166.408 71.4728 165.625 71.2908 164.596 71.5011C158.453 72.755 152.294 73.9147 146.139 75.1042C141.732 75.9564 137.324 76.8038 132.821 77.6701H132.82Z" fill="#FCFEFC"/>
<path d="M116.775 246.158C114.62 245.065 112.75 244.154 110.91 243.181C87.2011 230.657 63.498 218.123 39.7807 205.613C38.9553 205.176 38.5535 204.652 38.4452 203.717C37.9023 198.993 37.2431 194.284 36.7331 189.557C36.0818 183.531 35.5326 177.492 34.9425 171.459C34.9268 171.306 34.9409 171.147 34.9409 170.885C35.2658 170.81 35.5985 170.69 35.939 170.661C41.9825 170.152 48.026 169.648 54.071 169.157C56.833 168.933 59.6092 168.837 62.3586 168.512C69.6246 167.652 75.9098 160.355 73.5432 151.898C73.1525 150.501 72.5404 149.165 71.9802 147.668C75.1031 145.518 77.454 142.629 78.2889 138.783C79.1222 134.941 78.303 131.319 76.1875 128.035C85.3697 121.432 83.5665 106.415 72.1277 103.275C72.2674 101.442 72.5859 99.6281 72.509 97.8312C72.2124 90.8321 66.2788 85.1087 59.2592 85.1385C56.2367 85.1511 53.2157 85.5889 50.1948 85.8337C45.5041 86.2135 40.8149 86.5902 36.1242 86.9731C33.0499 87.2242 29.9756 87.4847 26.9013 87.7373C26.5953 87.7624 26.2861 87.7656 25.9377 87.7813C23.4315 63.27 20.9315 38.8104 18.4018 14.0794C18.9856 14.2803 19.4501 14.4152 19.8958 14.5989C33.7278 20.2594 47.552 25.9404 61.3919 31.5837C78.4254 38.5295 95.4699 45.4471 112.513 52.3694C114.361 53.1211 114.135 52.8873 114.153 54.692C114.33 72.2591 114.468 89.8261 114.686 107.392C114.964 129.715 115.29 152.037 115.625 174.359C115.917 193.807 116.246 213.254 116.562 232.699C116.624 236.568 116.703 240.436 116.772 244.304C116.781 244.821 116.772 245.337 116.772 246.156L116.775 246.158Z" fill="#FCFEFC"/>
<path d="M271.28 123.218C270.99 132.807 269.414 142.06 265.224 150.757C263.994 153.31 262.517 155.702 260.668 157.864C259.361 159.393 257.814 160.617 256.122 161.678C254.978 162.395 253.754 162.679 252.385 162.542C242.762 161.59 233.137 160.669 223.511 159.741C222.21 159.616 220.906 159.532 219.607 159.401C215.916 159.026 213.904 156.372 214.646 152.894C214.852 151.932 215.289 151.149 216.142 150.605C217.678 149.622 219.269 149.082 221.165 149.286C226.932 149.911 232.714 150.415 238.487 150.984C240.827 151.215 243.17 151.443 245.499 151.766C246.819 151.949 247.99 151.68 249.102 151.031C250.758 150.066 251.367 148.734 251.073 146.801C250.83 145.192 249.582 143.78 247.936 143.478C246.448 143.205 244.932 143.08 243.424 142.931C235.57 142.149 227.715 141.385 219.861 140.608C218.196 140.443 216.531 140.282 214.872 140.07C212.195 139.726 210.26 137.493 210.356 134.914C210.448 132.402 212.609 130.172 215.187 129.974C215.807 129.927 216.443 129.977 217.064 130.04C224.084 130.751 231.104 131.476 238.123 132.192C241.452 132.531 244.776 132.91 248.11 133.172C251.023 133.4 253.087 131.137 252.752 128.226C252.539 126.368 251.222 124.957 249.286 124.719C244.565 124.138 239.843 123.562 235.112 123.093C227.309 122.319 219.498 121.641 211.693 120.9C209.174 120.662 207.09 118.426 207.153 116.114C207.229 113.288 209.384 110.847 212.112 110.789C213.874 110.752 215.647 111.064 217.413 111.251C222.869 111.828 228.321 112.456 233.782 112.997C239.14 113.529 244.518 113.87 249.859 114.529C251.881 114.778 254.27 113.057 254.427 111.183C254.62 108.868 252.826 106.651 250.562 106.483C247.538 106.259 244.507 106.113 241.489 105.835C235.452 105.279 229.421 104.658 223.387 104.065C222.555 103.983 221.719 103.934 220.889 103.829C218.428 103.518 216.868 102.147 216.388 99.9075C215.903 97.6445 216.914 95.2952 218.918 94.1292C219.456 93.8153 220.034 93.5156 220.633 93.3759C222.667 92.902 224.71 92.4516 226.83 92.6525C235.261 93.4513 243.691 94.2453 252.122 95.0378C254.516 95.2622 256.914 95.4459 259.303 95.7142C259.952 95.788 260.624 96.0155 261.2 96.3294C262.834 97.2192 264.135 98.4919 265.169 100.042C267.823 104.021 269.481 108.409 270.222 113.098C270.751 116.443 270.939 119.841 271.28 123.217V123.218Z" fill="#FCFEFC"/>
<path d="M9.45824 125.957C9.49591 120.298 9.91178 114.694 11.5282 109.214C12.8386 104.774 15.4154 101.15 18.4583 97.7904C19.2618 96.9038 20.3023 96.4471 21.5028 96.3498C26.611 95.9386 31.7176 95.5259 36.8242 95.099C42.6071 94.6157 48.3885 94.1057 54.1731 93.6286C55.5258 93.5172 56.8864 93.4497 58.2439 93.4387C59.4021 93.4293 60.3798 93.8436 61.0075 94.9139C61.2413 95.314 61.6164 95.6279 61.8957 96.0045C63.112 97.6445 63.4368 99.4257 62.5831 101.317C61.7372 103.192 60.273 104.207 58.1843 104.335C51.9211 104.716 45.6563 105.089 39.3963 105.533C36.0599 105.769 32.7298 106.116 29.4012 106.463C27.1226 106.7 25.4748 108.418 25.2394 110.682C24.9899 113.082 27.1414 115.262 29.6633 115.056C35.6048 114.571 41.54 114.031 47.4783 113.51C52.9474 113.03 58.4165 112.548 63.8856 112.065C64.8759 111.977 65.863 111.869 66.8532 111.792C69.6639 111.574 71.8798 113.3 72.3208 116.037C72.7366 118.62 71.0198 121.286 68.3927 121.814C66.6084 122.173 64.7645 122.25 62.9425 122.408C54.6078 123.135 46.2715 123.844 37.9368 124.562C35.2799 124.791 32.6199 124.985 29.9678 125.268C28.1034 125.467 26.6518 126.927 26.3881 128.703C26.1276 130.461 27.0598 132.184 28.7719 132.857C29.4279 133.114 30.2032 133.237 30.9047 133.183C35.4934 132.837 40.0742 132.418 44.6598 132.036C49.4023 131.642 54.1448 131.266 58.8873 130.88C60.3468 130.762 61.8047 130.547 63.2642 130.539C66.996 130.52 69.62 134.208 68.4194 137.742C67.7117 139.828 66.1925 141.036 64.0222 141.239C58.9203 141.716 53.8106 142.11 48.704 142.53C43.1282 142.99 37.5555 143.491 31.9734 143.885C28.7845 144.109 27.7958 146.954 28.3325 149.293C28.5868 150.397 29.2475 151.229 30.3444 151.49C31.3425 151.727 32.4222 151.934 33.4219 151.807C41.6232 150.76 49.87 150.264 58.1089 149.672C60.4708 149.503 62.1782 150.244 63.3097 152.328C64.4898 154.503 64.391 156.645 63.1449 158.735C62.4183 159.951 61.2429 160.48 59.8635 160.593C56.8409 160.841 53.8184 161.096 50.7943 161.325C42.6605 161.945 34.5251 162.533 26.3944 163.187C25.0464 163.296 23.9055 162.939 22.8729 162.175C20.7166 160.578 18.813 158.709 17.2876 156.497C14.2745 152.132 12.5169 147.231 11.2724 142.116C9.97926 136.804 9.42529 131.412 9.45197 125.952L9.45824 125.957Z" fill="#FCFEFC"/>
<path d="M132.821 77.6701C137.324 76.8023 141.732 75.9548 146.139 75.1043C152.294 73.9147 158.455 72.755 164.596 71.5011C165.625 71.2908 166.408 71.4728 167.235 72.0048C171.191 74.5503 175.156 77.08 179.124 79.6051C180.887 80.7272 182.666 81.821 184.499 82.9666C184.473 83.2569 184.504 83.5771 184.408 83.8548C182.092 90.6233 179.774 97.3903 177.409 104.142C177.24 104.625 176.778 105.102 176.328 105.375C170.79 108.741 165.222 112.057 159.682 115.42C158.86 115.919 158.188 116.009 157.232 115.648C151.416 113.454 145.569 111.342 139.715 109.251C138.633 108.865 137.815 108.291 137.148 107.346C134.556 103.675 131.921 100.033 129.265 96.4063C128.682 95.6075 128.656 94.8841 128.892 93.9362C130.15 88.8704 131.316 83.7811 132.519 78.7012C132.591 78.3983 132.693 78.1032 132.82 77.6701H132.821ZM166.877 85.9718C165.248 83.8831 163.346 82.3875 161.109 81.2953C158.609 80.0759 155.994 79.4905 153.213 79.9064C148.67 80.5859 145.426 83.0419 143.038 86.9527C139.805 92.246 140.55 99.3096 144.869 103.735C152.578 111.633 163.651 107.423 167.505 101.155C167.659 100.904 167.755 100.617 167.893 100.315C164.144 99.8525 163.499 99.6674 162.234 98.6646C160.584 97.3573 159.729 95.6169 159.525 93.5517C159.178 90.0568 161.437 87.6903 166.879 85.9718H166.877Z" fill="#1A1A1A"/>
<path d="M166.876 85.9703C161.435 87.6887 159.175 90.0552 159.522 93.5501C159.726 95.6154 160.583 97.3557 162.231 98.663C163.495 99.6658 164.142 99.8526 167.89 100.314C167.753 100.615 167.657 100.902 167.502 101.154C163.648 107.42 152.575 111.63 144.866 103.733C140.547 99.3096 139.803 92.246 143.035 86.9511C145.423 83.0403 148.665 80.5844 153.21 79.9048C155.991 79.489 158.607 80.0743 161.105 81.2937C163.342 82.3859 165.245 83.8815 166.874 85.9703H166.876Z" fill="#FCFEFC"/>
<path d="M278.094 131.275C277.879 130.426 277.779 129.525 277.782 128.648C277.801 123.363 277.644 118.091 276.815 112.856C275.955 107.437 274.35 102.282 271.501 97.555C269.701 94.567 267.567 91.8788 264.624 89.9344C263.989 89.5138 263.871 89.0242 263.937 88.3541C264.096 86.7424 264.216 85.126 264.37 83.5127C264.96 77.3217 265.549 71.1307 266.153 64.9397C266.599 60.362 267.06 55.7858 267.529 51.2113C268.1 45.6496 268.689 40.0879 269.273 34.5262C269.835 29.1732 270.398 23.8202 270.965 18.4672C271.57 12.7502 272.182 7.0347 272.785 1.31764C272.819 0.988082 272.79 0.650677 272.79 0.220681C241.582 9.08895 210.542 17.9086 179.28 26.7941C179.28 26.0549 179.28 25.4994 179.28 24.9423C179.28 19.8702 179.251 14.7982 179.295 9.72609C179.308 8.31841 178.759 7.30462 177.616 6.57959C177.091 6.24533 176.54 5.90321 175.951 5.72431C173.108 4.8549 170.295 3.77207 167.384 3.24948C156.349 1.26742 145.194 0.388599 133.995 0.13123C121.431 -0.155957 108.9 0.300717 96.424 1.96263C91.1824 2.66098 85.999 3.59944 80.9457 5.17034C79.753 5.54227 78.6059 6.06485 77.4414 6.52781C75.8909 7.14455 75.2805 8.24779 75.3056 9.95365C75.384 15.2344 75.3338 20.5152 75.3338 25.7976C75.3338 26.3562 75.3338 26.9149 75.3338 27.7482C53.2691 18.1612 31.2467 9.13917 9.05801 -0.0100098C12.0633 29.3317 15.0434 58.4317 18.022 87.5098C16.6143 88.431 15.3243 89.1434 14.1913 90.0521C13.0159 90.9953 11.8985 92.0498 10.9192 93.1939C7.34902 97.3667 5.18021 102.252 3.77409 107.522C1.77006 115.039 1.38087 122.68 2.00232 130.39C2.17338 132.515 2.37896 134.64 3.02395 136.718C3.33468 137.717 3.22797 138.904 3.08516 139.977C2.46998 144.583 1.63196 149.164 1.13762 153.781C0.525586 159.507 0.480076 165.273 1.04503 171.011C1.78576 178.52 3.41158 185.855 5.66356 193.061C8.67824 202.703 13.4443 211.289 20.5627 218.527C29.6476 227.762 40.7678 232.181 53.6049 232.547C57.5408 232.658 61.4312 232.144 65.2933 231.426C66.8328 231.141 68.4335 230.413 69.8883 230.639C71.4011 230.874 72.7774 232.009 74.2023 232.768C79.0468 235.348 83.8835 237.942 88.7327 240.513C89.464 240.9 89.916 241.396 90.1624 242.234C92.8349 251.329 95.0163 260.514 95.6048 270.015C95.925 275.201 95.71 280.347 94.6522 285.46C94.329 287.02 93.9241 288.531 93.4423 290.002H193.691C194.469 287.456 195.326 284.928 196.291 282.423C202.784 265.564 207.433 248.157 210.635 230.37C210.9 228.901 211.189 227.437 211.481 225.904C211.956 225.979 212.264 226.004 212.56 226.08C216.729 227.142 220.959 227.717 225.256 227.957C233.593 228.421 241.475 226.755 248.961 223.128C257.646 218.919 264.235 212.398 269.309 204.315C277.232 191.688 280.743 177.71 281.479 162.969C282.014 152.245 280.729 141.683 278.1 131.277L278.094 131.275ZM22.8791 162.178C20.7228 160.581 18.8192 158.712 17.2938 156.501C14.2807 152.135 12.5231 147.234 11.2786 142.119C9.98549 136.807 9.43151 131.415 9.45819 125.955C9.49586 120.296 9.91173 114.692 11.5281 109.212C12.8385 104.772 15.4154 101.149 18.4583 97.7889C19.2618 96.9022 20.3022 96.4455 21.5028 96.3482C26.6109 95.9371 31.7175 95.5243 36.8241 95.0975C42.6071 94.6141 48.3885 94.1041 54.173 93.627C55.5258 93.5156 56.8864 93.4481 58.2439 93.4371C59.402 93.4277 60.3797 93.842 61.0074 94.9123C61.2413 95.3125 61.6163 95.6263 61.8957 96.003C63.1119 97.6429 63.4368 99.4241 62.583 101.315C61.7372 103.19 60.273 104.206 58.1842 104.333C51.921 104.714 45.6563 105.088 39.3962 105.532C36.0598 105.767 32.7297 106.114 29.4012 106.461C27.1225 106.698 25.4747 108.416 25.2393 110.681C24.9898 113.08 27.1414 115.26 29.6633 115.055C35.6047 114.57 41.5399 114.03 47.4783 113.509C52.9474 113.029 58.4165 112.547 63.8856 112.063C64.8758 111.976 65.8629 111.867 66.8532 111.79C69.6638 111.572 71.8797 113.299 72.3207 116.035C72.7366 118.619 71.0197 121.285 68.3927 121.812C66.6084 122.172 64.7644 122.248 62.9424 122.407C54.6077 123.133 46.2715 123.843 37.9368 124.56C35.2799 124.789 32.6199 124.984 29.9677 125.266C28.1034 125.466 26.6517 126.925 26.3881 128.701C26.1276 130.459 27.0598 132.182 28.7719 132.855C29.4279 133.113 30.2031 133.235 30.9046 133.182C35.4933 132.835 40.0742 132.416 44.6598 132.035C49.4023 131.641 54.1448 131.264 58.8873 130.878C60.3468 130.76 61.8047 130.545 63.2641 130.538C66.996 130.519 69.6199 134.207 68.4194 137.741C67.7116 139.826 66.1925 141.035 64.0221 141.237C58.9202 141.714 53.8105 142.108 48.7039 142.529C43.1281 142.989 37.5554 143.489 31.9733 143.883C28.7845 144.108 27.7958 146.953 28.3325 149.291C28.5867 150.396 29.2474 151.228 30.3444 151.488C31.3425 151.725 32.4222 151.932 33.4218 151.805C41.6231 150.758 49.8699 150.262 58.1089 149.671C60.4707 149.501 62.1782 150.242 63.3096 152.326C64.4898 154.501 64.3909 156.643 63.1449 158.734C62.4183 159.95 61.2428 160.479 59.8634 160.592C56.8409 160.84 53.8184 161.094 50.7943 161.323C42.6604 161.943 34.525 162.531 26.3944 163.186C25.0463 163.294 23.9054 162.938 22.8728 162.174L22.8791 162.178ZM116.775 246.156C114.62 245.064 112.75 244.152 110.91 243.179C87.2011 230.656 63.498 218.122 39.7807 205.611C38.9553 205.175 38.5535 204.651 38.4452 203.715C37.9022 198.992 37.2431 194.282 36.7331 189.555C36.0818 183.529 35.5326 177.49 34.9425 171.458C34.9268 171.304 34.9409 171.145 34.9409 170.883C35.2658 170.808 35.5985 170.689 35.939 170.659C41.9825 170.151 48.026 169.647 54.071 169.156C56.833 168.931 59.6092 168.835 62.3586 168.511C69.6246 167.651 75.9098 160.353 73.5432 151.896C73.1525 150.499 72.5404 149.164 71.9802 147.667C75.1031 145.517 77.454 142.628 78.2889 138.781C79.1222 134.94 78.303 131.318 76.1875 128.033C85.3697 121.431 83.5665 106.414 72.1277 103.274C72.2674 101.441 72.5859 99.6265 72.509 97.8297C72.2124 90.8305 66.2788 85.1071 59.2592 85.137C56.2367 85.1495 53.2157 85.5873 50.1948 85.8322C45.5041 86.2119 40.8149 86.5886 36.1242 86.9715C33.0499 87.2226 29.9756 87.4831 26.9013 87.7358C26.5952 87.7609 26.2861 87.764 25.9377 87.7797C23.4315 63.2684 20.9315 38.8089 18.4018 14.0778C18.9856 14.2787 19.4501 14.4137 19.8958 14.5973C33.7278 20.2578 47.552 25.9388 61.3919 31.5821C78.4254 38.5279 95.4699 45.4455 112.513 52.3678C114.361 53.1196 114.135 52.8857 114.153 54.6904C114.33 72.2575 114.468 89.8245 114.686 107.39C114.964 129.714 115.29 152.036 115.625 174.358C115.917 193.805 116.246 213.252 116.562 232.698C116.624 236.566 116.703 240.434 116.772 244.303C116.781 244.819 116.772 245.335 116.772 246.155L116.775 246.156ZM244.035 205.55C202.969 218.88 161.841 232.23 120.647 245.601C119.733 181.673 118.821 117.964 117.908 54.0784C167.059 40.0408 216.132 26.0361 265.566 12.372C262.882 37.7966 260.226 62.9718 257.566 88.183C256.608 88.183 255.783 88.2489 254.968 88.1736C244.973 87.2493 234.981 86.2888 224.985 85.3818C223.276 85.2264 221.509 85.0192 219.836 85.2782C211.983 86.496 208.366 93.4104 208.632 99.3739C208.687 100.617 208.967 101.85 209.174 103.3C203.852 104.879 200.103 108.27 198.99 114.017C197.89 119.703 199.968 124.26 204.478 127.976C202.22 131.183 201.25 134.732 201.989 138.62C202.73 142.515 204.896 145.5 208.257 147.744C207.98 148.331 207.724 148.834 207.501 149.352C206.236 152.284 205.483 155.289 206.209 158.503C207.546 164.418 212.959 168.831 219.015 169.204C224.806 169.562 230.584 170.121 236.364 170.632C239.749 170.932 243.126 171.313 246.505 171.665C246.908 171.707 247.308 171.787 247.726 171.853C246.494 183.093 245.273 194.244 244.035 205.55ZM265.225 150.757C263.995 153.31 262.518 155.702 260.67 157.864C259.362 159.393 257.815 160.617 256.123 161.678C254.979 162.395 253.755 162.679 252.387 162.542C242.764 161.59 233.139 160.669 223.513 159.741C222.212 159.616 220.908 159.532 219.608 159.401C215.917 159.026 213.905 156.372 214.648 152.894C214.853 151.932 215.291 151.149 216.143 150.605C217.68 149.622 219.271 149.082 221.167 149.286C226.934 149.911 232.715 150.415 238.489 150.984C240.829 151.215 243.172 151.443 245.501 151.766C246.82 151.949 247.991 151.68 249.104 151.031C250.759 150.066 251.368 148.734 251.075 146.801C250.832 145.192 249.584 143.78 247.938 143.478C246.45 143.205 244.934 143.08 243.426 142.931C235.571 142.149 227.717 141.385 219.863 140.608C218.197 140.443 216.532 140.282 214.874 140.07C212.196 139.726 210.261 137.493 210.357 134.914C210.45 132.402 212.611 130.172 215.189 129.974C215.809 129.927 216.445 129.977 217.066 130.04C224.086 130.751 231.105 131.476 238.125 132.192C241.453 132.531 244.777 132.91 248.112 133.172C251.025 133.4 253.088 131.137 252.754 128.226C252.541 126.368 251.224 124.957 249.287 124.719C244.567 124.138 239.845 123.562 235.113 123.093C227.311 122.319 219.5 121.641 211.694 120.9C209.175 120.662 207.091 118.426 207.154 116.114C207.231 113.288 209.386 110.847 212.113 110.789C213.876 110.752 215.649 111.064 217.414 111.251C222.871 111.828 228.323 112.456 233.784 112.997C239.142 113.529 244.52 113.87 249.86 114.529C251.883 114.778 254.272 113.057 254.429 111.183C254.622 108.868 252.828 106.651 250.563 106.483C247.539 106.259 244.509 106.113 241.491 105.835C235.454 105.279 229.423 104.658 223.389 104.065C222.557 103.983 221.721 103.934 220.89 103.829C218.43 103.518 216.87 102.147 216.39 99.9075C215.905 97.6445 216.915 95.2952 218.919 94.1292C219.458 93.8153 220.035 93.5156 220.635 93.3759C222.668 92.902 224.712 92.4516 226.832 92.6525C235.262 93.4513 243.693 94.2453 252.123 95.0378C254.518 95.2622 256.916 95.4459 259.304 95.7142C259.954 95.788 260.626 96.0155 261.202 96.3294C262.835 97.2192 264.136 98.4919 265.171 100.042C267.824 104.021 269.483 108.409 270.224 113.098C270.753 116.443 270.941 119.841 271.282 123.217C270.991 132.805 269.416 142.058 265.225 150.755V150.757Z" fill="#1A1A1A"/>
</g>
<defs>
<filter id="filter0_i_161_937" x="35" y="250" width="222" height="56" filterUnits="userSpaceOnUse" color-interpolation-filters="sRGB">
<feFlood flood-opacity="0" result="BackgroundImageFix"/>
<feBlend mode="normal" in="SourceGraphic" in2="BackgroundImageFix" result="shape"/>
<feColorMatrix in="SourceAlpha" type="matrix" values="0 0 0 0 0 0 0 0 0 0 0 0 0 0 0 0 0 0 127 0" result="hardAlpha"/>
<feOffset dy="6"/>
<feComposite in2="hardAlpha" operator="arithmetic" k2="-1" k3="1"/>
<feColorMatrix type="matrix" values="0 0 0 0 1 0 0 0 0 1 0 0 0 0 1 0 0 0 0.5 0"/>
<feBlend mode="normal" in2="shape" result="effect1_innerShadow_161_937"/>
</filter>
<clipPath id="clip0_161_937">
<rect width="280.947" height="290.01" fill="white" transform="translate(0.646545 -0.0100098)"/>
</clipPath>
</defs>
</svg>
