<?xml version="1.0" encoding="UTF-8"?>
<svg id="Layer_1" xmlns="http://www.w3.org/2000/svg" version="1.1" viewBox="0 0 113 30">
  <!-- Generator: Adobe Illustrator 29.0.1, SVG Export Plug-In . SVG Version: 2.1.0 Build 192)  -->
  <defs>
    <style>
      .st0 {
        fill: #1a1a1a;
      }
    </style>
  </defs>
  <g>
    <path class="st0" d="M14.1,10.1c1.1-.2,2.2-.4,3.2-.6.6.4,1.2.8,1.8,1.1-.2.7-.5,1.4-.7,2.1-.6.4-1.2.7-1.8,1.1-.6-.3-1.3-.5-2-.7-.3-.4-.6-.8-.9-1.3.2-.6.3-1.1.4-1.7M15.1,11.1c-.2.3-.2.6-.2.9,0,.3.2.6.4.8.2.2.5.3.7.3.3,0,.5,0,.8-.1.3-.1.5-.3.7-.6,0,0-.2,0-.3,0,0,0-.2,0-.3-.1,0,0-.1-.1-.2-.2,0,0,0-.2,0-.3,0-.4.4-.7.7-.7-.2-.3-.5-.5-.8-.6-.3,0-.6,0-.9,0-.3.1-.5.3-.6.6h0Z"/>
    <path class="st0" d="M1.4,19.1c0,1,.3,1.9.7,2.8.3.8.8,1.5,1.4,2.1.5.5,1.2.8,1.9,1,.9.3,1.8.2,2.7,0,.6.4,1.3.7,1.9,1,.3,1,.6,2.1.6,3.2,0,0,0,0,0,0h10c.5-1.5.9-3.1,1.2-4.8.6.2,1.3.2,1.9.2.8,0,1.6-.3,2.3-.8,1.1-.8,1.8-2,2.2-3.3.5-1.7.5-3.6,0-5.3v-.3c0-.7,0-1.5-.3-2.2-.2-.5-.5-1.1-1-1.4.3-2.9.6-5.7.9-8.6-3,.9-6,1.7-9,2.6v-1.7c0-.2-.2-.3-.3-.3-.4-.2-.7-.3-1.1-.3-1.3-.2-2.6-.3-3.9-.3-1.2,0-2.4.1-3.6.3h0c-.3.1-.7.2-1,.3-.1,0-.2.1-.2.3v1.8c-2.1-.9-4.3-1.8-6.4-2.7.3,2.8.6,5.6.9,8.5-.6.3-.9.8-1.2,1.3-.4,1-.5,2.2-.3,3.3,0,.1,0,.3,0,.5-.2,1-.3,1.9-.2,2.9ZM26.8,12.2c.4.5.6,1.1.6,1.8,0,.8,0,1.6-.2,2.3-.2.7-.5,1.3-1,1.8-.2.1-.3.3-.5.3-1.1-.1-2.1-.2-3.2-.3-.2,0-.3,0-.4-.2,0,0-.1-.2-.1-.3,0-.1,0-.2,0-.3.1-.1.3-.2.5-.2.9.1,1.7.2,2.5.3.2,0,.5-.2.5-.4,0,0,0-.1,0-.2s0-.1,0-.1c0,0,0,0-.1-.1,0,0-.1,0-.2,0l-3.1-.3c0,0-.1,0-.2,0,0,0-.1,0-.2-.1s0-.1,0-.2,0-.1,0-.2c0-.1,0-.2.2-.3.1,0,.2-.1.4,0,1,.1,2,.2,3,.3,0,0,.1,0,.2,0,0,0,.1,0,.1,0,0,0,0,0,.1-.1,0,0,0-.1,0-.2,0,0,0-.1,0-.2,0,0,0-.1,0-.2,0,0,0,0-.1-.1,0,0-.1,0-.2,0-1.2-.2-2.4-.3-3.6-.4-.3,0-.5-.3-.5-.5,0-.1,0-.3.2-.4s.2-.1.4-.1c1.2.2,2.4.3,3.6.4.2,0,.4-.1.4-.3,0-.2-.1-.5-.4-.5-.9,0-1.9-.2-2.8-.3,0,0-.1,0-.2,0,0,0-.1,0-.2-.1s0,0-.1-.2c0,0,0-.1,0-.2,0-.1,0-.2,0-.3,0,0,.2-.2.3-.2h0c.1,0,.2,0,.5-.1,1.1.1,2.2.2,3.4.3.2,0,.3.2.4.3ZM12.7,7.9c4.7-1.3,9.4-2.7,14.3-4-.3,2.4-.5,4.9-.8,7.3-1.1-.1-2.2-.2-3.3-.3-.3,0-.6,0-.8.2-.2.2-.4.4-.5.7-.1.3-.1.6,0,.9-.2,0-.4.2-.6.3-.2.2-.3.4-.4.6,0,.3,0,.5,0,.8,0,.3.3.5.5.6-.1.1-.2.3-.2.5,0,.2,0,.3,0,.5,0,.2.1.4.2.5.1.2.2.3.4.4-.2.4-.3.8-.2,1.2,0,.2.2.4.4.6s.4.3.7.3c.9,0,1.9.2,2.9.3-.2,1.1-.3,2.2-.4,3.3l-11.9,3.9c0-6.2-.2-12.4-.3-18.5h0ZM3,4c3.1,1.2,6.2,2.5,9.3,3.8,0,6.2.2,12.5.3,18.7-2.5-1.3-5-2.6-7.5-4-.2-1.1-.3-2.2-.4-3.3.9,0,1.8-.2,2.6-.2.3,0,.5-.2.7-.4.2-.2.3-.5.4-.7,0-.3,0-.7-.2-.9.3-.2.5-.5.6-.8,0-.2,0-.4,0-.6,0-.2-.1-.4-.2-.5.2-.1.4-.3.5-.5.1-.2.1-.5.1-.7,0-.3-.1-.5-.3-.7-.2-.2-.4-.3-.7-.4,0-.3.1-.6,0-.9,0-.3-.3-.5-.5-.7-.3-.2-.6-.2-.9-.2-1,.1-2,.2-3,.3-.2-2.4-.5-4.8-.7-7.1h0ZM2.5,12.8c.1-.3.3-.5.5-.7,0,0,0,0,.1-.1,0,0,.1,0,.2,0,1.1-.1,2.1-.2,3.2-.3h0c.3,0,.6-.1.7.2,0,0,0,0,.1.2,0,0,0,.1,0,.2,0,0,0,.1,0,.2,0,0,0,.1-.1.2,0,0-.1,0-.2.1,0,0-.1,0-.2,0-.9,0-1.9.1-2.8.2-.1,0-.2,0-.3.2,0,0,0,.2,0,.3,0,.1,0,.2.2.2,0,0,.2,0,.3,0l3.6-.3c.3,0,.5.2.5.5,0,.1,0,.3-.1.4,0,0-.2.2-.3.2-1.2.1-2.4.2-3.6.3,0,0-.1,0-.2,0,0,0,0,0-.1.1s0,0,0,.1c0,0,0,.1,0,.2,0,.1,0,.2.2.2,0,0,.2,0,.3,0,1-.1,2-.2,3.1-.3.1,0,.3,0,.4.1.1,0,.2.2.2.4,0,0,0,.1,0,.2,0,0,0,.1,0,.2,0,0,0,0-.2.1,0,0-.1,0-.2,0-1,.1-2.1.2-3.1.3-.3,0-.4.3-.3.6,0,.2.3.2.4.2.8-.1,1.6-.2,2.3-.2.2,0,.3,0,.5,0,.2.2.3.5.2.7,0,0,0,.2-.1.2s-.2,0-.3,0c-1.1.1-2.2.2-3.3.3-.3,0-.5-.3-.7-.5-.5-.7-.7-1.6-.8-2.4,0-.9,0-1.9.3-2.7Z"/>
  </g>
  <g>
    <path class="st0" d="M89.5,10.5c0,.8.1,1.4.5,1.9.3.5.8.9,1.4,1.1.6.2,1.4.3,2.3.3.4,0,.8,0,1.2-.2.3,0,2.2-.5,3.4-1.8l.7.7v-3.2h-3.2l.6.6c-.5.4-1.1.7-1.7.8-.1,0-.3,0-.4,0-.1,0-.3,0-.4,0-.1,0-.2-.1-.2-.2,0-.1,0-.3,0-.4v-4.6h1.9v-2.9h-1.9V0h-4v2.7h-1.4v2.9h1.4v5Z"/>
    <path class="st0" d="M86.4,2.5c-.6,0-1.1.2-1.5.5-.4.4-.8.9-1,1.7h-.1v-2.1h-3.9v11.1h4v-5.8c0-.4,0-.8.3-1.1.2-.3.4-.6.7-.7.3-.2.7-.3,1.1-.3s.5,0,.7,0,.5,0,.7.2v-3.4c-.2,0-.3,0-.5-.1-.2,0-.3,0-.5,0Z"/>
    <path class="st0" d="M68.3,11.3c.5.9,1.1,1.5,2,2,.9.5,1.9.7,3.1.7s1.9-.2,2.7-.5c.8-.3,1.4-.7,1.9-1.3.5-.6.8-1.2.9-2h-3.6c0,.2-.2.4-.4.5-.2.1-.4.3-.6.3-.2,0-.5.1-.7.1-.4,0-.7,0-1-.2-.3-.2-.5-.4-.6-.7-.1-.3-.2-.6-.2-1v-.2h7.2v-.9c0-.9-.1-1.7-.4-2.4-.3-.7-.6-1.3-1.1-1.8-.5-.5-1.1-.9-1.7-1.1s-1.4-.4-2.3-.4-2.1.2-3,.7c-.8.5-1.5,1.1-2,2-.5.9-.7,1.9-.7,3s.2,2.2.7,3.1ZM71.8,6.1c.2-.2.4-.4.6-.6.3-.1.6-.2.9-.2s.6,0,.9.2c.3.1.5.3.6.6.2.2.2.5.2.8h-3.5c0-.3,0-.6.3-.8Z"/>
    <polygon class="st0" points="63.9 13.7 67.6 2.6 63.4 2.6 61.6 10 61.5 10 59.7 2.6 55.5 2.6 59.3 13.7 63.9 13.7"/>
    <path class="st0" d="M46.8,13.2c.9.5,1.9.7,3.1.7s2.2-.2,3.1-.7c.9-.5,1.5-1.1,2-2,.5-.9.7-1.9.7-3s-.2-2.1-.7-3c-.5-.9-1.1-1.5-2-2-.9-.5-1.9-.7-3.1-.7s-2.2.2-3.1.7c-.9.5-1.5,1.1-2,2-.5.9-.7,1.8-.7,3s.2,2.1.7,3c.5.9,1.1,1.5,2,2ZM48.4,6.7c.1-.4.3-.7.6-1,.3-.2.6-.3.9-.3s.6.1.9.3.4.5.6,1c.1.4.2.9.2,1.5s0,1.1-.2,1.5c-.1.4-.3.7-.6,1-.2.2-.5.3-.9.3s-.7-.1-.9-.3c-.3-.2-.4-.5-.6-1s-.2-.9-.2-1.5,0-1.1.2-1.5Z"/>
    <path class="st0" d="M34.9,13.2c.9.5,1.9.7,3.1.7s2-.2,2.8-.6c.8-.4,1.4-1,1.8-1.7.4-.7.7-1.6.7-2.6h-3.7c0,.4-.1.7-.3,1-.1.3-.3.5-.5.6-.2.1-.5.2-.8.2s-.6,0-.9-.3c-.3-.2-.5-.5-.6-.9-.1-.4-.2-.9-.2-1.5s0-1.1.2-1.5c.1-.4.3-.7.6-.9.3-.2.6-.3.9-.3s.8.2,1.1.5c.3.3.5.7.5,1.3h3.7c0-1-.2-1.8-.7-2.5-.4-.7-1.1-1.3-1.9-1.7-.8-.4-1.7-.6-2.8-.6s-2.2.2-3.1.7c-.9.5-1.5,1.1-2,2-.5.9-.7,1.8-.7,3s.2,2.1.7,3c.5.9,1.1,1.5,2,2Z"/>
    <path class="st0" d="M72.8,19c-.5-.5-1.1-.9-1.7-1.1-.7-.3-1.4-.4-2.3-.4s-2.1.2-3,.7c-.8.5-1.5,1.1-2,2-.5.9-.7,1.9-.7,3s.2,2.2.7,3.1c.5.9,1.1,1.5,2,2,.9.5,1.9.7,3.1.7s1.9-.2,2.7-.5c.8-.3,1.4-.7,1.9-1.3.5-.6.8-1.2.9-2h-3.6c0,.2-.2.4-.4.5-.2.1-.4.3-.6.3-.2,0-.5.1-.7.1-.4,0-.7,0-1-.2-.3-.2-.5-.4-.6-.7-.1-.3-.2-.6-.2-1v-.2h7.2v-.9c0-.9-.1-1.7-.4-2.4-.3-.7-.6-1.3-1.1-1.8ZM67.1,21.9c0-.3,0-.6.3-.8.2-.2.4-.4.6-.6.3-.1.6-.2.9-.2s.6,0,.9.2c.3.1.5.3.6.6.2.2.2.5.2.8h-3.5Z"/>
    <path class="st0" d="M95.4,23.9c0,.4,0,.7-.2.9-.1.3-.3.5-.6.6-.2.1-.5.2-.9.2-.5,0-.9-.2-1.2-.5-.3-.3-.4-.7-.4-1.3v-6.2h-4v7.1c0,.8.2,1.5.5,2.1.3.6.8,1.1,1.3,1.5.6.4,1.3.5,2,.5s1.5-.2,2.1-.6c.6-.4,1-1,1.3-1.7h.1v2.1h3.8v-11.1h-4v6.2Z"/>
    <path class="st0" d="M111.7,24.1v-.9c0-.9-.1-1.7-.4-2.4-.3-.7-.6-1.3-1.1-1.8-.5-.5-1.1-.9-1.7-1.1s-1.4-.4-2.3-.4-2.1.2-3,.7c-.8.5-1.5,1.1-2,2-.5.9-.7,1.9-.7,3s.2,2.2.7,3.1c.5.9,1.1,1.5,2,2,.9.5,1.9.7,3.1.7s1.9-.2,2.7-.5c.8-.3,1.4-.7,1.9-1.3.5-.6.8-1.2.9-2h-3.6c0,.2-.2.4-.4.5-.2.1-.4.3-.6.3-.2,0-.5.1-.7.1-.4,0-.7,0-1-.2-.3-.2-.5-.4-.6-.7-.1-.3-.2-.6-.2-1v-.2h7.2ZM104.8,21.1c.2-.2.4-.4.6-.6.3-.1.6-.2.9-.2s.6,0,.9.2c.3.1.5.3.6.6.2.2.2.5.2.8h-3.5c0-.3,0-.6.3-.8Z"/>
    <path class="st0" d="M40.1,17.6c-.2,0-.3,0-.5-.1-.2,0-.3,0-.5,0-.6,0-1.1.2-1.5.5-.4.4-.8.9-1,1.7h-.1v-2.1h-3.9v11.1h4v-5.8c0-.4,0-.8.3-1.1.2-.3.4-.6.7-.7.3-.2.7-.3,1.1-.3s.5,0,.7,0c.3,0,.5,0,.7.2v-3.4Z"/>
    <path class="st0" d="M84.8,18c-.6-.4-1.3-.5-2-.5s-1.5.2-2.1.6c-.6.4-1,.9-1.3,1.6h-.1v-2.1h-3.8v11.1h4v-6.2c0-.4,0-.7.2-.9.1-.3.3-.5.6-.6.2-.1.5-.2.9-.2.5,0,.9.2,1.2.5.3.3.4.7.4,1.3v6.2h4v-7.1c0-.8-.2-1.5-.5-2.1-.3-.6-.8-1.1-1.3-1.5Z"/>
    <polygon class="st0" points="59 17.6 57.2 25 57.1 25 55.3 17.6 51.1 17.6 54.8 28.7 59.5 28.7 63.2 17.6 59 17.6"/>
    <path class="st0" d="M49.6,19c-.5-.5-1.1-.9-1.7-1.1-.7-.3-1.4-.4-2.3-.4s-2.1.2-3,.7c-.8.5-1.5,1.1-2,2-.5.9-.7,1.9-.7,3s.2,2.2.7,3.1c.5.9,1.1,1.5,2,2,.9.5,1.9.7,3.1.7s1.9-.2,2.7-.5c.8-.3,1.4-.7,1.9-1.3.5-.6.8-1.2.9-2h-3.6c0,.2-.2.4-.4.5-.2.1-.4.3-.6.3-.2,0-.5.1-.7.1-.4,0-.7,0-1-.2-.3-.2-.5-.4-.6-.7-.1-.3-.2-.6-.2-1v-.2h7.2v-.9c0-.9-.1-1.7-.4-2.4-.3-.7-.6-1.3-1.1-1.8ZM43.9,21.9c0-.3,0-.6.3-.8.2-.2.4-.4.6-.6.3-.1.6-.2.9-.2s.6,0,.9.2c.3.1.5.3.6.6.2.2.2.5.2.8h-3.5Z"/>
  </g>
</svg>