<svg width="113" height="30" viewBox="0 0 113 30" fill="none" xmlns="http://www.w3.org/2000/svg">
<g clip-path="url(#clip0_43_133)">
<path d="M9.7515 2.95946C10.9294 2.75321 12.123 2.64933 13.3188 2.64897C14.6163 2.63021 15.9131 2.71682 17.1966 2.90794C17.5875 2.96242 17.9698 3.06677 18.3342 3.21844C18.4372 3.26996 18.5918 3.37301 18.5918 3.52758V5.23462C21.591 4.35602 24.6417 3.52758 27.6396 2.64897C27.3304 5.54512 27.0199 8.38839 26.761 11.2832C27.2775 11.5937 27.588 12.1618 27.7955 12.6797C28.0531 13.4038 28.106 14.1793 28.106 14.9034V15.2125C28.571 16.9751 28.6226 18.8327 28.106 20.5384C27.744 21.8305 27.0213 23.0712 25.9366 23.8467C25.249 24.3258 24.4456 24.6119 23.6099 24.6752C22.9652 24.7083 22.3194 24.6383 21.6968 24.4677C21.38 26.3733 20.8777 28.2433 20.1972 30.0512C19.888 30.7752 19.7321 31.5508 19.5775 32.3264C19.3085 33.7452 19.1184 35.1778 19.0081 36.6177C18.9395 37.1663 18.9222 37.7201 18.9565 38.2719C18.9565 38.6854 19.2155 39.0474 19.4216 39.4095C20.0104 40.3379 20.6467 41.2353 21.328 42.0982C21.8974 42.8737 22.5171 43.6493 23.1381 44.4248C23.2926 44.6323 23.397 44.9414 23.2926 45.2004C23.1882 45.4594 22.9835 45.6072 22.776 45.8214C21.7415 46.8031 20.7083 47.7332 19.6223 48.6687C19.4677 48.8233 19.2603 48.8748 19.0528 48.9792C18.7915 49.0546 18.5167 49.0705 18.2485 49.0257C17.9803 48.9808 17.7256 48.8765 17.503 48.7203C17.3471 48.5657 17.1925 48.3582 17.2441 48.1521C17.2942 47.8571 17.4366 47.5856 17.6508 47.3766C18.2705 46.6987 18.8915 46.0316 19.5124 45.3075C18.8915 44.4804 18.3233 43.6018 17.7024 42.7747C17.0668 41.9109 16.4784 41.0134 15.9397 40.086C15.7669 39.8362 15.644 39.5554 15.5777 39.259C15.5262 38.847 15.5262 38.4303 15.5777 38.0183C15.6807 35.7432 15.8868 33.5195 16.0428 31.239C16.0428 31.1874 16.0428 31.0329 15.9397 31.0844C15.8685 31.092 15.7995 31.1143 15.7373 31.1498C15.675 31.1852 15.6207 31.2331 15.5777 31.2905C15.1745 31.608 14.7944 31.9537 14.4401 32.325C13.1995 33.6687 11.906 34.9107 10.7169 36.3059C10.3549 36.7194 9.94132 37.1845 9.6837 37.6509C9.5793 37.8055 9.6837 37.96 9.73523 38.116C9.95182 38.6529 10.2112 39.1716 10.5108 39.6671C11.3894 41.3213 12.3195 42.9754 13.3025 44.5781C13.3484 44.6554 13.3768 44.7418 13.3857 44.8313C13.3946 44.9208 13.3838 45.0112 13.3541 45.096C13.3224 45.1783 13.2738 45.2531 13.2114 45.3154C13.1491 45.3778 13.0743 45.4264 12.992 45.458C12.165 45.9231 11.3379 46.4397 10.5108 46.9047C9.73523 47.3712 8.95967 47.8878 8.18411 48.3528C7.92721 48.547 7.62461 48.6717 7.3055 48.7148C6.83908 48.7664 6.37401 48.5074 6.06352 48.1982C5.98026 48.1081 5.91847 48.0003 5.88278 47.8829C5.84709 47.7655 5.83842 47.6415 5.85742 47.5203C5.95535 47.2312 6.15805 46.9894 6.42553 46.8424C7.46007 46.2227 8.4946 45.5502 9.52778 44.9292C8.80374 43.534 8.08106 42.0819 7.35838 40.6894C6.87419 39.7653 6.44234 38.8147 6.06487 37.8421C5.94825 37.5769 5.86183 37.2995 5.80726 37.015C5.82067 36.794 5.89172 36.5804 6.01335 36.3954C6.34539 35.8288 6.72601 35.2921 7.15093 34.7914C7.82887 33.9643 8.54748 33.1887 9.21864 32.4131C9.48873 32.1266 9.73115 31.8152 9.94268 31.483C10.3304 30.7697 10.5266 29.9681 10.5121 29.1563C10.5121 28.0716 10.2532 26.9869 9.94268 25.951C9.32304 25.589 8.65053 25.2731 8.02954 24.9165C7.15093 25.124 6.2208 25.227 5.34219 24.968C4.65015 24.7995 4.0106 24.4622 3.48057 23.9864C2.85117 23.412 2.35666 22.7054 2.0325 21.9173C1.67352 21.0049 1.44529 20.0463 1.35456 19.07C1.29458 18.1001 1.36434 17.1266 1.56201 16.1752C1.59627 16.0187 1.57816 15.8553 1.51049 15.7101C1.35456 14.6254 1.40744 13.4865 1.82098 12.456C2.0786 11.8879 2.44062 11.3713 3.01008 11.1123C2.69959 8.265 2.44062 5.41767 2.13012 2.6327C4.25071 3.51131 6.42147 4.39534 8.54206 5.3214V3.52758C8.54206 3.37301 8.6451 3.32148 8.74815 3.26996C9.05865 3.11403 9.42609 3.06251 9.73116 2.95946M12.6504 7.87044C12.7534 14.0234 12.8578 20.2279 12.9093 26.3809L24.8519 22.5031C24.9563 21.4184 25.0593 20.3337 25.2139 19.249C24.2322 19.1446 23.2492 19.0415 22.3191 18.99C22.0756 18.9556 21.8461 18.8558 21.655 18.701C21.4639 18.5462 21.3186 18.3424 21.2344 18.1114C21.0798 17.7494 21.1829 17.2843 21.3903 16.9223C21.2253 16.8215 21.0842 16.686 20.9769 16.5251C20.8697 16.3642 20.7988 16.1819 20.7693 15.9908C20.7439 15.8181 20.7538 15.6422 20.7983 15.4734C20.8428 15.3047 20.921 15.1468 21.0283 15.0091C20.8027 14.8511 20.6316 14.6269 20.5388 14.3675C20.4461 14.1081 20.4361 13.8263 20.5104 13.5611C20.5721 13.3302 20.6966 13.1211 20.8702 12.9568C21.0438 12.7926 21.2595 12.6798 21.4934 12.6309C21.3902 12.3467 21.3902 12.0352 21.4934 11.751C21.5795 11.4706 21.761 11.2293 22.0064 11.0688C22.2519 10.9084 22.5457 10.8388 22.8371 10.8724C23.9218 10.9754 25.0065 11.0798 26.1467 11.1828C26.4044 8.75312 26.6633 6.27051 26.9223 3.84078C22.0615 5.18581 17.3566 6.52948 12.6517 7.87316M3.03585 3.99671C3.29346 6.37492 3.55243 8.75312 3.75988 11.1313C4.79306 11.0283 5.8276 10.9754 6.80925 10.8724C7.11787 10.8353 7.42962 10.9088 7.68921 11.0798C7.93625 11.2435 8.12135 11.4851 8.21499 11.7663C8.30862 12.0474 8.30539 12.3518 8.2058 12.6309C8.46933 12.6911 8.70672 12.834 8.88332 13.0386C9.05992 13.2433 9.16648 13.499 9.18745 13.7685C9.2156 14.0075 9.17749 14.2496 9.0773 14.4684C8.9771 14.6873 8.81867 14.8743 8.61934 15.0091C8.72809 15.1653 8.80277 15.3425 8.83851 15.5294C8.87425 15.7163 8.87025 15.9086 8.82679 16.0938C8.7296 16.437 8.50826 16.7318 8.2058 16.9209C8.37682 17.1991 8.44985 17.5265 8.41325 17.851C8.36528 18.13 8.22875 18.3862 8.02386 18.5815C7.81898 18.7769 7.55663 18.9011 7.27567 18.9357C6.3957 18.9873 5.51303 19.0903 4.63849 19.1418C4.74154 20.2265 4.84458 21.3655 5.00051 22.4515C7.53328 23.7952 10.0172 25.1402 12.5487 26.4324C12.4456 20.2279 12.3426 13.9719 12.2897 7.7674C9.18881 6.52677 6.08657 5.23462 3.03585 3.994M6.50011 11.6967C5.46558 11.8011 4.43104 11.8527 3.34634 11.9557C3.28689 11.9594 3.22878 11.975 3.17546 12.0016C3.12213 12.0281 3.07466 12.0651 3.03585 12.1103C2.8349 12.3301 2.66102 12.5731 2.5179 12.8343C2.15724 13.6614 2.15724 14.5969 2.20876 15.523C2.31181 16.3501 2.5179 17.2287 3.03585 17.9012C3.24194 18.1087 3.44939 18.3663 3.70701 18.4178C4.79171 18.3148 5.93064 18.2632 7.0167 18.1602C7.11046 18.1658 7.2031 18.1375 7.27776 18.0805C7.35242 18.0235 7.40413 17.9416 7.42346 17.8497C7.52651 17.6422 7.42346 17.3331 7.21737 17.1718C7.06144 17.0687 6.90687 17.1202 6.75094 17.1202C5.97538 17.1718 5.19982 17.2233 4.42426 17.3277C4.26969 17.3277 4.06224 17.2762 4.0175 17.1202C3.91445 16.8626 4.06902 16.5521 4.328 16.5521C5.36253 16.4477 6.39571 16.3962 7.43024 16.2931C7.49941 16.29 7.56714 16.2722 7.62902 16.2412C7.6909 16.2101 7.74555 16.1663 7.78941 16.1128C7.83327 16.0592 7.86537 15.997 7.88361 15.9302C7.90186 15.8634 7.90584 15.7935 7.8953 15.725C7.88125 15.5881 7.81366 15.4622 7.70726 15.3749C7.60086 15.2875 7.46426 15.2457 7.32719 15.2586C6.29266 15.363 5.25813 15.4145 4.27647 15.5176C4.17395 15.5351 4.06862 15.5127 3.98212 15.4549C3.89563 15.3972 3.83454 15.3085 3.81141 15.2071C3.80324 15.1526 3.80623 15.097 3.8202 15.0437C3.83418 14.9903 3.85884 14.9404 3.8927 14.8969C3.92655 14.8534 3.9689 14.8173 4.01716 14.7906C4.06541 14.764 4.11858 14.7475 4.17343 14.742C5.36253 14.639 6.55163 14.5359 7.79226 14.4315C7.92087 14.4205 8.04049 14.361 8.12685 14.2651C8.21321 14.1692 8.25986 14.044 8.25732 13.9149C8.25732 13.656 7.99835 13.3983 7.74074 13.4499L4.17343 13.7604C4.0707 13.7783 3.96503 13.756 3.87823 13.6982C3.79143 13.6405 3.73014 13.5515 3.70701 13.4499C3.68795 13.3334 3.71513 13.2141 3.78274 13.1173C3.85036 13.0206 3.95308 12.9541 4.06902 12.9319C5.00051 12.8289 5.93064 12.7774 6.86213 12.7258C6.92985 12.7277 6.99718 12.7149 7.05945 12.6882C7.12172 12.6615 7.17745 12.6216 7.22279 12.5713C7.26879 12.5212 7.30409 12.4623 7.32651 12.3982C7.34894 12.334 7.35801 12.2659 7.35319 12.1981C7.34836 12.1303 7.32974 12.0642 7.29846 12.0039C7.26718 11.9436 7.22389 11.8902 7.17127 11.8472C7.06822 11.5883 6.75773 11.6913 6.50011 11.6913M22.5279 11.6913C22.4185 11.725 22.3235 11.7942 22.2579 11.8881C22.1923 11.9819 22.1599 12.0949 22.1659 12.2092C22.1657 12.2704 22.1776 12.3309 22.2009 12.3874C22.2242 12.4439 22.2585 12.4953 22.3017 12.5385C22.3449 12.5817 22.3963 12.616 22.4528 12.6393C22.5093 12.6626 22.5698 12.6745 22.631 12.6743C23.5611 12.7774 24.5441 12.8804 25.4783 12.9319C25.7373 12.9319 25.8918 13.2424 25.8403 13.4499C25.7888 13.6044 25.5813 13.7604 25.4268 13.7075C24.2377 13.6044 23.0486 13.5014 21.8595 13.3455C21.7222 13.3322 21.5852 13.3738 21.4785 13.4612C21.3718 13.5486 21.304 13.6747 21.29 13.8119C21.2385 14.0695 21.4974 14.3285 21.7564 14.3285C22.9455 14.4315 24.1346 14.5359 25.3237 14.6905C25.3798 14.6929 25.4346 14.7074 25.4844 14.7331C25.5343 14.7587 25.578 14.795 25.6124 14.8392C25.6469 14.8835 25.6713 14.9347 25.6839 14.9893C25.6966 15.0439 25.6972 15.1007 25.6857 15.1556C25.6803 15.2105 25.6637 15.2638 25.637 15.3122C25.6103 15.3606 25.574 15.403 25.5304 15.4368C25.4867 15.4707 25.4366 15.4954 25.3832 15.5092C25.3297 15.5231 25.2739 15.526 25.2193 15.5176C24.1861 15.4145 23.1516 15.3101 22.17 15.2071C22.0412 15.1904 21.9109 15.2231 21.8053 15.2986C21.6996 15.374 21.6265 15.4867 21.6005 15.6138C21.5891 15.6825 21.5924 15.7528 21.6103 15.82C21.6282 15.8872 21.6602 15.9499 21.7042 16.0038C21.7482 16.0577 21.8032 16.1016 21.8655 16.1325C21.9278 16.1635 21.996 16.1808 22.0656 16.1833L25.1678 16.4938C25.2227 16.4993 25.2758 16.5158 25.3241 16.5424C25.3723 16.5691 25.4147 16.6052 25.4485 16.6487C25.4824 16.6922 25.507 16.7421 25.521 16.7955C25.535 16.8488 25.538 16.9044 25.5298 16.9589C25.5298 17.165 25.2722 17.3209 25.0648 17.3209C24.2377 17.2165 23.4106 17.165 22.532 17.0619C22.3574 17.0759 22.1929 17.1491 22.0656 17.2694C22.0096 17.3655 21.9845 17.4765 21.9937 17.5873C22.0029 17.6981 22.046 17.8035 22.1171 17.889C22.23 17.9927 22.3787 18.0486 22.532 18.0449C23.6167 18.148 24.6512 18.251 25.7373 18.3541C25.9434 18.3541 26.0993 18.1995 26.2539 18.0965C26.7704 17.63 27.0294 16.9589 27.2369 16.2864C27.427 15.5306 27.4921 14.7487 27.4294 13.9719C27.3779 13.3509 27.1704 12.6797 26.8084 12.2092C26.6963 12.0782 26.5577 11.9723 26.4016 11.8988C25.2654 11.7957 24.1278 11.6913 23.0418 11.5883C22.7313 11.6398 22.6282 11.6398 22.5252 11.6913H22.5279Z" fill="#1A1A1A"/>
<path d="M14.0944 10.1456C15.1791 9.9395 16.2638 9.73206 17.2997 9.52596C17.9193 9.88798 18.4888 10.3015 19.1097 10.6635C18.9023 11.3876 18.6433 12.0587 18.3857 12.7828C17.7647 13.1448 17.1966 13.5068 16.5756 13.8675C15.9546 13.6085 15.2835 13.4024 14.611 13.1434C14.3005 12.7299 13.99 12.3164 13.6808 11.8513C13.8459 11.2897 13.9817 10.7199 14.0876 10.1442M15.0692 11.0757C14.9183 11.3399 14.8618 11.6476 14.9088 11.9482C14.9559 12.2488 15.1038 12.5245 15.3282 12.7299C15.5284 12.9137 15.78 13.0318 16.0493 13.0684C16.3186 13.105 16.5926 13.0583 16.8346 12.9346C17.1255 12.8154 17.3637 12.5955 17.5057 12.315C17.41 12.3347 17.3111 12.3338 17.2157 12.3125C17.1202 12.2911 17.0304 12.2496 16.9522 12.1909C16.874 12.1322 16.8092 12.0575 16.762 11.9719C16.7149 11.8862 16.6865 11.7915 16.6787 11.694C16.6271 11.2805 17.0407 10.97 17.4027 10.97C17.1953 10.6965 16.9053 10.4973 16.5756 10.4019C16.2858 10.3227 15.9775 10.3471 15.7038 10.4709C15.43 10.5946 15.208 10.81 15.076 11.0798L15.0692 11.0757Z" fill="#1A1A1A"/>
</g>
<g clip-path="url(#clip1_43_133)">
<path d="M95.3522 2.65216V5.53448H88.0604V2.65216H95.3522ZM89.4724 0H93.45V10.1599C93.4463 10.2937 93.4737 10.4265 93.5302 10.5478C93.5836 10.6501 93.6696 10.7316 93.7746 10.7793C93.9102 10.8315 94.0549 10.8556 94.2 10.8504C94.3402 10.8484 94.48 10.8341 94.6177 10.8078C95.475 10.7082 96.388 10.0461 96.7668 9.5806L98.3043 11.7789C97.1186 13.2155 95.122 13.6526 94.791 13.7302C94.4081 13.8138 94.0187 13.8644 93.6272 13.8815C92.7143 13.9297 91.9479 13.8358 91.3281 13.5996C90.7464 13.3922 90.2523 12.9938 89.9263 12.4694C89.6143 11.9522 89.463 11.3086 89.4724 10.5388V0Z" fill="#1A1A1A"/>
<path d="M95.6535 9.3931H98.8397V12.5793" fill="#1A1A1A"/>
</g>
<path d="M79.9243 13.7069V2.63931H83.7864V4.7433H83.9017C84.1034 3.96512 84.4229 3.39588 84.86 3.03561C85.302 2.67534 85.8183 2.4952 86.4092 2.4952C86.5821 2.4952 86.7527 2.50961 86.9208 2.53844C87.0937 2.56245 87.2594 2.59848 87.418 2.64652V6.04029C87.221 5.97304 86.9784 5.9226 86.6902 5.88897C86.402 5.85535 86.1546 5.83853 85.948 5.83853C85.559 5.83853 85.2083 5.9274 84.896 6.10514C84.5886 6.27807 84.346 6.52305 84.1683 6.84009C83.9906 7.15233 83.9017 7.51981 83.9017 7.94253V13.7069H79.9243Z" fill="#1A1A1A"/>
<path d="M73.2886 13.9086C72.1069 13.9086 71.0885 13.6829 70.2335 13.2313C69.3832 12.775 68.7275 12.1217 68.2664 11.2714C67.81 10.4164 67.5818 9.39323 67.5818 8.20192C67.5818 7.05866 67.8124 6.0595 68.2736 5.20445C68.7347 4.34941 69.3856 3.6841 70.2263 3.20854C71.0669 2.73298 72.0588 2.4952 73.2021 2.4952C74.0379 2.4952 74.7945 2.6249 75.4718 2.8843C76.1491 3.14369 76.728 3.52078 77.2083 4.01555C77.6887 4.50553 78.0586 5.10118 78.318 5.80251C78.5774 6.50384 78.7071 7.29404 78.7071 8.1731V9.0954H68.8212V6.90494H75.0467C75.0419 6.5879 74.9602 6.30929 74.8017 6.06911C74.648 5.82412 74.439 5.63438 74.1748 5.49988C73.9154 5.36057 73.62 5.29092 73.2886 5.29092C72.9667 5.29092 72.6713 5.36057 72.4023 5.49988C72.1333 5.63438 71.9171 5.82172 71.7538 6.0619C71.5953 6.30209 71.5112 6.5831 71.5016 6.90494V9.26833C71.5016 9.6238 71.5761 9.94084 71.725 10.2195C71.8739 10.4981 72.0877 10.7166 72.3663 10.8751C72.6449 11.0337 72.9811 11.1129 73.375 11.1129C73.6488 11.1129 73.8986 11.0745 74.1244 10.9976C74.355 10.9208 74.5519 10.8103 74.7153 10.6662C74.8786 10.5173 74.9987 10.3395 75.0755 10.133H78.7071C78.5822 10.9016 78.2868 11.5693 77.8208 12.1361C77.3548 12.6981 76.7376 13.1353 75.969 13.4475C75.2052 13.7549 74.3117 13.9086 73.2886 13.9086Z" fill="#1A1A1A"/>
<path d="M67.5968 2.63931L63.8787 13.7069H59.2673L55.5492 2.63931H59.7284L61.5154 9.96006H61.6306L63.4176 2.63931H67.5968Z" fill="#1A1A1A"/>
<path d="M49.8358 13.9086C48.6349 13.9086 47.6069 13.6709 46.7519 13.1953C45.8968 12.7149 45.2411 12.0472 44.7848 11.1922C44.3284 10.3323 44.1003 9.33558 44.1003 8.20192C44.1003 7.06827 44.3284 6.07391 44.7848 5.21887C45.2411 4.35901 45.8968 3.69131 46.7519 3.21575C47.6069 2.73538 48.6349 2.4952 49.8358 2.4952C51.0367 2.4952 52.0647 2.73538 52.9197 3.21575C53.7748 3.69131 54.4305 4.35901 54.8868 5.21887C55.3432 6.07391 55.5714 7.06827 55.5714 8.20192C55.5714 9.33558 55.3432 10.3323 54.8868 11.1922C54.4305 12.0472 53.7748 12.7149 52.9197 13.1953C52.0647 13.6709 51.0367 13.9086 49.8358 13.9086ZM49.8646 10.9688C50.2009 10.9688 50.4915 10.8559 50.7365 10.6302C50.9815 10.4044 51.1712 10.0825 51.3057 9.66463C51.4402 9.24672 51.5075 8.74954 51.5075 8.1731C51.5075 7.59186 51.4402 7.09469 51.3057 6.68157C51.1712 6.26366 50.9815 5.94181 50.7365 5.71604C50.4915 5.49027 50.2009 5.37739 49.8646 5.37739C49.5092 5.37739 49.2041 5.49027 48.9495 5.71604C48.6949 5.94181 48.5004 6.26366 48.3659 6.68157C48.2314 7.09469 48.1641 7.59186 48.1641 8.1731C48.1641 8.74954 48.2314 9.24672 48.3659 9.66463C48.5004 10.0825 48.6949 10.4044 48.9495 10.6302C49.2041 10.8559 49.5092 10.9688 49.8646 10.9688Z" fill="#1A1A1A"/>
<path d="M37.9365 13.9086C36.7356 13.9086 35.7076 13.6709 34.8526 13.1953C33.9975 12.7149 33.3418 12.0472 32.8855 11.1922C32.4291 10.3323 32.201 9.33558 32.201 8.20192C32.201 7.06827 32.4291 6.07391 32.8855 5.21887C33.3418 4.35901 33.9975 3.69131 34.8526 3.21575C35.7076 2.73538 36.7356 2.4952 37.9365 2.4952C39.0221 2.4952 39.9612 2.69215 40.7538 3.08605C41.5512 3.47514 42.1685 4.02756 42.6056 4.74331C43.0428 5.45424 43.2637 6.29008 43.2685 7.2508H39.5793C39.5265 6.66956 39.3584 6.22763 39.075 5.925C38.7964 5.61757 38.4361 5.46385 37.9941 5.46385C37.6483 5.46385 37.3457 5.56473 37.0863 5.76648C36.8269 5.96343 36.6251 6.26366 36.481 6.66716C36.3369 7.06586 36.2648 7.56784 36.2648 8.1731C36.2648 8.77836 36.3369 9.28274 36.481 9.68625C36.6251 10.085 36.8269 10.3852 37.0863 10.5869C37.3457 10.7839 37.6483 10.8824 37.9941 10.8824C38.2872 10.8824 38.5466 10.8151 38.7723 10.6806C38.9981 10.5413 39.1806 10.3395 39.3199 10.0753C39.4641 9.80634 39.5505 9.47969 39.5793 9.0954H43.2685C43.2541 10.0705 43.0308 10.9208 42.5984 11.6461C42.1661 12.3667 41.5536 12.9239 40.761 13.3178C39.9732 13.7117 39.0317 13.9086 37.9365 13.9086Z" fill="#1A1A1A"/>
<path d="M32.6045 28.7069V17.6393H36.4666V19.7433H36.5819C36.7836 18.9651 37.1031 18.3959 37.5402 18.0356C37.9821 17.6754 38.4985 17.4952 39.0894 17.4952C39.2623 17.4952 39.4328 17.5096 39.601 17.5385C39.7739 17.5625 39.9396 17.5985 40.0981 17.6465V21.0403C39.9012 20.9731 39.6586 20.9226 39.3704 20.889C39.0822 20.8554 38.8348 20.8386 38.6282 20.8386C38.2391 20.8386 37.8885 20.9274 37.5762 21.1052C37.2688 21.2781 37.0262 21.5231 36.8485 21.8401C36.6707 22.1523 36.5819 22.5198 36.5819 22.9425V28.7069H32.6045ZM45.6656 28.9087C44.4839 28.9087 43.4656 28.6829 42.6105 28.2313C41.7603 27.775 41.1046 27.1217 40.6434 26.2715C40.1871 25.4164 39.9589 24.3932 39.9589 23.2019C39.9589 22.0587 40.1895 21.0595 40.6506 20.2045C41.1118 19.3494 41.7627 18.6841 42.6033 18.2086C43.444 17.733 44.4359 17.4952 45.5792 17.4952C46.415 17.4952 47.1716 17.6249 47.8489 17.8843C48.5262 18.1437 49.105 18.5208 49.5854 19.0156C50.0658 19.5055 50.4357 20.1012 50.695 20.8025C50.9544 21.5039 51.0841 22.2941 51.0841 23.1731V24.0954H41.1983V21.905H47.4238C47.419 21.5879 47.3373 21.3093 47.1788 21.0691C47.0251 20.8241 46.8161 20.6344 46.5519 20.4999C46.2925 20.3606 45.9971 20.2909 45.6656 20.2909C45.3438 20.2909 45.0484 20.3606 44.7794 20.4999C44.5104 20.6344 44.2942 20.8217 44.1309 21.0619C43.9724 21.3021 43.8883 21.5831 43.8787 21.905V24.2683C43.8787 24.6238 43.9531 24.9409 44.1021 25.2195C44.251 25.4981 44.4647 25.7166 44.7433 25.8752C45.022 26.0337 45.3582 26.1129 45.7521 26.1129C46.0259 26.1129 46.2757 26.0745 46.5015 25.9977C46.732 25.9208 46.929 25.8103 47.0923 25.6662C47.2556 25.5173 47.3757 25.3396 47.4526 25.133H51.0841C50.9592 25.9016 50.6638 26.5693 50.1979 27.1361C49.7319 27.6981 49.1147 28.1353 48.3461 28.4475C47.5823 28.7549 46.6888 28.9087 45.6656 28.9087ZM63.178 17.6393L59.46 28.7069H54.8485L51.1305 17.6393H55.3096L57.0966 24.9601H57.2119L58.9988 17.6393H63.178ZM68.8698 28.9087C67.6881 28.9087 66.6697 28.6829 65.8147 28.2313C64.9644 27.775 64.3087 27.1217 63.8476 26.2715C63.3913 25.4164 63.1631 24.3932 63.1631 23.2019C63.1631 22.0587 63.3937 21.0595 63.8548 20.2045C64.316 19.3494 64.9668 18.6841 65.8075 18.2086C66.6481 17.733 67.6401 17.4952 68.7833 17.4952C69.6192 17.4952 70.3757 17.6249 71.0531 17.8843C71.7304 18.1437 72.3092 18.5208 72.7896 19.0156C73.2699 19.5055 73.6398 20.1012 73.8992 20.8025C74.1586 21.5039 74.2883 22.2941 74.2883 23.1731V24.0954H64.4024V21.905H70.6279C70.6231 21.5879 70.5415 21.3093 70.3829 21.0691C70.2292 20.8241 70.0203 20.6344 69.7561 20.4999C69.4967 20.3606 69.2013 20.2909 68.8698 20.2909C68.548 20.2909 68.2525 20.3606 67.9835 20.4999C67.7145 20.6344 67.4984 20.8217 67.335 21.0619C67.1765 21.3021 67.0925 21.5831 67.0829 21.905V24.2683C67.0829 24.6238 67.1573 24.9409 67.3062 25.2195C67.4551 25.4981 67.6689 25.7166 67.9475 25.8752C68.2261 26.0337 68.5624 26.1129 68.9563 26.1129C69.2301 26.1129 69.4799 26.0745 69.7056 25.9977C69.9362 25.9208 70.1332 25.8103 70.2965 25.6662C70.4598 25.5173 70.5799 25.3396 70.6568 25.133H74.2883C74.1634 25.9016 73.868 26.5693 73.402 27.1361C72.9361 27.6981 72.3188 28.1353 71.5502 28.4475C70.7865 28.7549 69.893 28.9087 68.8698 28.9087ZM79.4829 22.4814V28.7069H75.5055V17.6393H79.2812V19.7433H79.3965C79.6367 19.042 80.0594 18.492 80.6646 18.0933C81.2747 17.6946 81.9856 17.4952 82.7974 17.4952C83.5804 17.4952 84.2602 17.6754 84.8366 18.0356C85.4178 18.3911 85.867 18.8811 86.184 19.5055C86.5059 20.13 86.6644 20.8434 86.6596 21.6456V28.7069H82.6822V22.4814C82.687 21.9338 82.5477 21.5039 82.2642 21.1916C81.9856 20.8794 81.5965 20.7233 81.097 20.7233C80.7703 20.7233 80.4845 20.7953 80.2395 20.9394C79.9993 21.0787 79.8144 21.2805 79.6847 21.5447C79.555 21.8041 79.4877 22.1163 79.4829 22.4814ZM95.3939 23.8648V17.6393H99.3713V28.7069H95.5956V26.6029H95.4803C95.2402 27.3091 94.8198 27.8615 94.2194 28.2602C93.6189 28.6541 92.9056 28.851 92.0794 28.851C91.306 28.851 90.6287 28.6733 90.0474 28.3178C89.471 27.9623 89.0219 27.4724 88.7 26.8479C88.383 26.2234 88.222 25.5077 88.2172 24.7007V17.6393H92.1947V23.8648C92.1995 24.4125 92.3388 24.8424 92.6126 25.1546C92.8912 25.4669 93.2803 25.623 93.7799 25.623C94.1113 25.623 94.3971 25.5533 94.6373 25.414C94.8823 25.2699 95.0696 25.0682 95.1993 24.8088C95.3338 24.5446 95.3987 24.2299 95.3939 23.8648ZM106.292 28.9087C105.11 28.9087 104.092 28.6829 103.237 28.2313C102.386 27.775 101.731 27.1217 101.269 26.2715C100.813 25.4164 100.585 24.3932 100.585 23.2019C100.585 22.0587 100.815 21.0595 101.277 20.2045C101.738 19.3494 102.389 18.6841 103.229 18.2086C104.07 17.733 105.062 17.4952 106.205 17.4952C107.041 17.4952 107.798 17.6249 108.475 17.8843C109.152 18.1437 109.731 18.5208 110.211 19.0156C110.692 19.5055 111.062 20.1012 111.321 20.8025C111.58 21.5039 111.71 22.2941 111.71 23.1731V24.0954H101.824V21.905H108.05C108.045 21.5879 107.963 21.3093 107.805 21.0691C107.651 20.8241 107.442 20.6344 107.178 20.4999C106.918 20.3606 106.623 20.2909 106.292 20.2909C105.97 20.2909 105.674 20.3606 105.405 20.4999C105.136 20.6344 104.92 20.8217 104.757 21.0619C104.598 21.3021 104.514 21.5831 104.505 21.905V24.2683C104.505 24.6238 104.579 24.9409 104.728 25.2195C104.877 25.4981 105.091 25.7166 105.369 25.8752C105.648 26.0337 105.984 26.1129 106.378 26.1129C106.652 26.1129 106.902 26.0745 107.127 25.9977C107.358 25.9208 107.555 25.8103 107.718 25.6662C107.882 25.5173 108.002 25.3396 108.079 25.133H111.71C111.585 25.9016 111.29 26.5693 110.824 27.1361C110.358 27.6981 109.741 28.1353 108.972 28.4475C108.208 28.7549 107.315 28.9087 106.292 28.9087Z" fill="#1A1A1A"/>
<defs>
<clipPath id="clip0_43_133">
<rect width="29.8293" height="27.931" fill="white" transform="translate(1.52588e-05 1.29309)"/>
</clipPath>
<clipPath id="clip1_43_133">
<rect width="10.7793" height="13.8905" fill="white" transform="translate(88.0604)"/>
</clipPath>
</defs>
</svg>
