<?xml version="1.0" encoding="utf-8"?>
<!-- Generator: Adobe Illustrator 29.0.1, SVG Export Plug-In . SVG Version: 9.03 Build 54978)  -->
<svg version="1.1" id="Layer_1" xmlns="http://www.w3.org/2000/svg" xmlns:xlink="http://www.w3.org/1999/xlink" x="0px" y="0px"
	 viewBox="0 0 28 28" enable-background="new 0 0 28 28" xml:space="preserve">
<path fill="#ABABAB" d="M15.77,14l9.82-9.82c0.49-0.49,0.49-1.28,0-1.77s-1.28-0.49-1.77,0L14,12.23L4.18,2.41
	c-0.49-0.49-1.28-0.49-1.77,0s-0.49,1.28,0,1.77L12.23,14l-9.82,9.82c-0.49,0.49-0.49,1.28,0,1.77c0.24,0.24,0.56,0.37,0.88,0.37
	s0.64-0.12,0.88-0.37L14,15.77l9.82,9.82c0.24,0.24,0.56,0.37,0.88,0.37s0.64-0.12,0.88-0.37c0.49-0.49,0.49-1.28,0-1.77L15.77,14z"
	/>
<g>
</g>
<g>
</g>
<g>
</g>
<g>
</g>
<g>
</g>
<g>
</g>
</svg>
